<svg xmlns="http://www.w3.org/2000/svg" viewBox="0 0 24 24">
<path xmlns="http://www.w3.org/2000/svg" d="M9 9.47V11H12.76L11 14.53V13H7.24L9 9.47ZM11 1L4 15H9V23L16 9H11V1ZM23.8255 20.6C23.9255 20.5 23.9255 20.4 23.8255 20.4L22.7255 19.6V18.6L23.8255 17.8C23.9255 17.7 24.0255 17.6 23.9255 17.5L22.9255 15.8C22.9255 15.7 22.7255 15.7 22.6255 15.7L21.4255 16.2C21.1255 16 20.8255 15.8 20.5255 15.7L20.3255 14.4C20.3255 14.3 20.2255 14.2 20.1255 14.2H18.1255C17.9255 14.2 17.8255 14.3 17.8255 14.4L17.6255 15.7C17.4755 15.8 17.3505 15.875 17.2255 15.95C17.1005 16.025 16.9755 16.1 16.8255 16.2L15.6255 15.7C15.5255 15.7 15.4255 15.7 15.3255 15.8L14.3255 17.5C14.3255 17.6 14.3255 17.7 14.4255 17.8L15.5255 18.6V19.6L14.4255 20.4C14.3255 20.5 14.2255 20.6 14.3255 20.7L15.3255 22.4C15.4255 22.5 15.5255 22.5 15.6255 22.5L16.8255 22C17.0255 22.2 17.3255 22.4 17.6255 22.5L17.8255 23.8C17.9255 23.9 18.0255 24 18.1255 24H20.1255C20.2255 24 20.3255 23.9 20.3255 23.8L20.5255 22.5C20.6755 22.4 20.8005 22.325 20.9255 22.25C21.0505 22.175 21.1755 22.1 21.3255 22L22.5255 22.4C22.6255 22.4 22.7255 22.4 22.8255 22.3L23.8255 20.6ZM19.0255 17.5C19.8255 17.5 20.5255 18.2 20.5255 19C20.5255 19.8 19.8255 20.5 19.0255 20.5C18.2255 20.5 17.5255 19.8 17.5255 19C17.5255 18.2 18.2255 17.5 19.0255 17.5Z"></path>
</svg>